v 0.062500 -0.062500 -2.437500
v 0.062500 -0.062500 -0.562500
v 0.062500 0.062500 -2.437500
v 0.062500 0.062500 -0.562500
v -0.062500 -0.062500 -2.437500
v -0.062500 -0.062500 -0.562500
v -0.062500 0.062500 -2.437500
v -0.062500 0.062500 -0.562500
v 0.125397 0.125397 -2.437500
v -0.125397 0.125397 -2.437500
v 0.125397 -0.125397 -2.437500
v -0.125397 -0.125397 -2.437500
v 0.000000 -0.000000 -2.819984
vn 0.0000 0.0000 1.0000
vn 0.0000 1.0000 -0.0000
vn -1.0000 0.0000 0.0000
vn 1.0000 0.0000 0.0000
vn 0.0000 -1.0000 0.0000
vn 0.0000 -0.9502 -0.3115
vn 0.9502 0.0000 -0.3115
vn -0.9502 0.0000 -0.3115
vn 0.0000 0.9502 -0.3115
s off
f 5//1 11//1 1//1
f 3//2 8//2 4//2
f 7//3 6//3 8//3
f 2//1 8//1 6//1
f 1//4 4//4 2//4
f 5//5 2//5 6//5
f 11//6 12//6 13//6
f 3//1 10//1 7//1
f 7//1 12//1 5//1
f 1//1 9//1 3//1
f 9//7 11//7 13//7
f 12//8 10//8 13//8
f 10//9 9//9 13//9
f 5//1 12//1 11//1
f 3//2 7//2 8//2
f 7//3 5//3 6//3
f 2//1 4//1 8//1
f 1//4 3//4 4//4
f 5//5 1//5 2//5
f 3//1 9//1 10//1
f 7//1 10//1 12//1
f 1//1 11//1 9//1
