v 0.000000 -1.000000 -0.025000
v 0.195090 -0.980785 0.025000
v 0.000000 -1.000000 0.025000
v 0.195090 -0.980785 -0.025000
v 0.382683 -0.923880 0.025000
v 0.382683 -0.923880 -0.025000
v 0.555570 -0.831470 0.025000
v 0.555570 -0.831470 -0.025000
v 0.707107 -0.707107 0.025000
v 0.707107 -0.707107 -0.025000
v 0.831470 -0.555570 0.025000
v 0.831470 -0.555570 -0.025000
v 0.923880 -0.382683 0.025000
v 0.923880 -0.382683 -0.025000
v 0.980785 -0.195090 0.025000
v 0.980785 -0.195090 -0.025000
v 1.000000 -0.000000 0.025000
v 1.000000 0.000000 -0.025000
v 0.980785 0.195090 0.025000
v 0.980785 0.195090 -0.025000
v 0.923880 0.382683 0.025000
v 0.923880 0.382683 -0.025000
v 0.831470 0.555570 0.025000
v 0.831470 0.555570 -0.025000
v 0.707107 0.707107 0.025000
v 0.707107 0.707107 -0.025000
v 0.555570 0.831470 0.025000
v 0.555570 0.831470 -0.025000
v 0.382683 0.923880 0.025000
v 0.382683 0.923880 -0.025000
v 0.195090 0.980785 0.025000
v 0.195090 0.980785 -0.025000
v 0.000000 1.000000 0.025000
v 0.000000 1.000000 -0.025000
v -0.195091 0.980785 0.025000
v -0.195091 0.980785 -0.025000
v -0.382684 0.923879 0.025000
v -0.382684 0.923879 -0.025000
v -0.555571 0.831469 0.025000
v -0.555571 0.831469 -0.025000
v -0.707107 0.707106 0.025000
v -0.707107 0.707106 -0.025000
v -0.831470 0.555570 0.025000
v -0.831470 0.555570 -0.025000
v -0.923880 0.382683 0.025000
v -0.923880 0.382683 -0.025000
v -0.980785 0.195089 0.025000
v -0.980785 0.195089 -0.025000
v -1.000000 -0.000001 0.025000
v -1.000000 -0.000001 -0.025000
v -0.980785 -0.195091 0.025000
v -0.980785 -0.195091 -0.025000
v -0.923879 -0.382684 0.025000
v -0.923879 -0.382684 -0.025000
v -0.831469 -0.555571 0.025000
v -0.831469 -0.555571 -0.025000
v -0.707106 -0.707108 0.025000
v -0.707106 -0.707108 -0.025000
v -0.555569 -0.831470 0.025000
v -0.555569 -0.831470 -0.025000
v -0.382682 -0.923880 0.025000
v -0.382682 -0.923880 -0.025000
v -0.195089 -0.980786 0.025000
v -0.195089 -0.980786 -0.025000
v 0.165829 -0.833669 0.025000
v 0.000000 -0.850000 -0.025000
v 0.000000 -0.850000 0.025000
v 0.325283 -0.785301 0.025000
v 0.165829 -0.833669 -0.025000
v 0.472236 -0.706753 0.025000
v 0.325283 -0.785301 -0.025000
v 0.601044 -0.601044 0.025000
v 0.472236 -0.706753 -0.025000
v 0.706753 -0.472236 0.025000
v 0.601044 -0.601044 -0.025000
v 0.785301 -0.325283 0.025000
v 0.706753 -0.472236 -0.025000
v 0.833669 -0.165829 0.025000
v 0.785301 -0.325283 -0.025000
v 0.850000 -0.000000 0.025000
v 0.833669 -0.165829 -0.025000
v 0.833669 0.165829 0.025000
v 0.850000 0.000000 -0.025000
v 0.785301 0.325283 0.025000
v 0.833669 0.165829 -0.025000
v 0.706753 0.472236 0.025000
v 0.785301 0.325283 -0.025000
v 0.601044 0.601044 0.025000
v 0.706753 0.472236 -0.025000
v 0.472236 0.706753 0.025000
v 0.601044 0.601044 -0.025000
v 0.325283 0.785301 0.025000
v 0.472236 0.706753 -0.025000
v 0.165829 0.833669 0.025000
v 0.325283 0.785301 -0.025000
v 0.000000 0.850005 0.025000
v 0.165829 0.833669 -0.025000
v -0.165830 0.833669 0.025000
v 0.000000 0.850005 -0.025000
v -0.325283 0.785301 0.025000
v -0.165830 0.833669 -0.025000
v -0.472237 0.706752 0.025000
v -0.325283 0.785301 -0.025000
v -0.601045 0.601044 0.025000
v -0.472237 0.706752 -0.025000
v -0.706753 0.472236 0.025000
v -0.601045 0.601044 -0.025000
v -0.785301 0.325282 0.025000
v -0.706753 0.472236 -0.025000
v -0.833669 0.165828 0.025000
v -0.785301 0.325282 -0.025000
v -0.850005 -0.000001 0.025000
v -0.833669 0.165828 -0.025000
v -0.833669 -0.165830 0.025000
v -0.850005 -0.000001 -0.025000
v -0.785301 -0.325284 0.025000
v -0.833669 -0.165830 -0.025000
v -0.706752 -0.472237 0.025000
v -0.785301 -0.325284 -0.025000
v -0.601043 -0.601045 0.025000
v -0.706752 -0.472237 -0.025000
v -0.472235 -0.706753 0.025000
v -0.601043 -0.601045 -0.025000
v -0.325281 -0.785302 0.025000
v -0.472235 -0.706753 -0.025000
v -0.165828 -0.833670 0.025000
v -0.325281 -0.785302 -0.025000
v -0.165828 -0.833670 -0.025000
vn 0.0980 -0.9952 0.0000
vn 0.2903 -0.9569 0.0000
vn 0.4714 -0.8819 0.0000
vn 0.6344 -0.7730 0.0000
vn 0.7730 -0.6344 0.0000
vn 0.8819 -0.4714 0.0000
vn 0.9569 -0.2903 0.0000
vn 0.9952 -0.0980 0.0000
vn 0.9952 0.0980 0.0000
vn 0.9569 0.2903 0.0000
vn 0.8819 0.4714 0.0000
vn 0.7730 0.6344 0.0000
vn 0.6344 0.7730 0.0000
vn 0.4714 0.8819 0.0000
vn 0.2903 0.9569 0.0000
vn 0.0980 0.9952 0.0000
vn -0.0980 0.9952 0.0000
vn -0.2903 0.9569 0.0000
vn -0.4714 0.8819 0.0000
vn -0.6344 0.7730 0.0000
vn -0.7730 0.6344 0.0000
vn -0.8819 0.4714 0.0000
vn -0.9569 0.2903 0.0000
vn -0.9952 0.0980 0.0000
vn -0.9952 -0.0980 0.0000
vn -0.9569 -0.2903 0.0000
vn -0.8819 -0.4714 0.0000
vn -0.7730 -0.6344 0.0000
vn -0.6344 -0.7730 0.0000
vn -0.4714 -0.8819 0.0000
vn -0.2903 -0.9569 0.0000
vn -0.0980 -0.9952 0.0000
vn 0.0000 -0.0000 1.0000
vn -0.0000 0.0000 -1.0000
s 1
f 1//1 2//1 3//1
f 4//2 5//2 2//2
f 6//3 7//3 5//3
f 8//4 9//4 7//4
f 10//5 11//5 9//5
f 12//6 13//6 11//6
f 14//7 15//7 13//7
f 16//8 17//8 15//8
f 18//9 19//9 17//9
f 20//10 21//10 19//10
f 22//11 23//11 21//11
f 24//12 25//12 23//12
f 26//13 27//13 25//13
f 28//14 29//14 27//14
f 30//15 31//15 29//15
f 32//16 33//16 31//16
f 34//17 35//17 33//17
f 36//18 37//18 35//18
f 38//19 39//19 37//19
f 40//20 41//20 39//20
f 42//21 43//21 41//21
f 44//22 45//22 43//22
f 46//23 47//23 45//23
f 48//24 49//24 47//24
f 50//25 51//25 49//25
f 52//26 53//26 51//26
f 54//27 55//27 53//27
f 56//28 57//28 55//28
f 58//29 59//29 57//29
f 60//30 61//30 59//30
f 62//31 63//31 61//31
f 64//32 3//32 63//32
f 65//17 66//17 67//17
f 68//18 69//18 65//18
f 70//19 71//19 68//19
f 72//20 73//20 70//20
f 74//21 75//21 72//21
f 76//22 77//22 74//22
f 78//23 79//23 76//23
f 80//24 81//24 78//24
f 82//25 83//25 80//25
f 84//26 85//26 82//26
f 86//27 87//27 84//27
f 88//28 89//28 86//28
f 90//29 91//29 88//29
f 92//30 93//30 90//30
f 94//31 95//31 92//31
f 96//32 97//32 94//32
f 98//1 99//1 96//1
f 100//2 101//2 98//2
f 102//3 103//3 100//3
f 104//4 105//4 102//4
f 106//5 107//5 104//5
f 108//6 109//6 106//6
f 110//7 111//7 108//7
f 112//8 113//8 110//8
f 114//9 115//9 112//9
f 116//10 117//10 114//10
f 118//11 119//11 116//11
f 120//12 121//12 118//12
f 122//13 123//13 120//13
f 124//14 125//14 122//14
f 126//15 127//15 124//15
f 67//16 128//16 126//16
f 2//33 67//33 3//33
f 4//34 66//34 69//34
f 5//33 65//33 2//33
f 6//34 69//34 71//34
f 5//33 70//33 68//33
f 6//34 73//34 8//34
f 7//33 72//33 70//33
f 8//34 75//34 10//34
f 11//33 72//33 9//33
f 12//34 75//34 77//34
f 13//33 74//33 11//33
f 14//34 77//34 79//34
f 13//33 78//33 76//33
f 14//34 81//34 16//34
f 15//33 80//33 78//33
f 16//34 83//34 18//34
f 19//33 80//33 17//33
f 20//34 83//34 85//34
f 21//33 82//33 19//33
f 22//34 85//34 87//34
f 21//33 86//33 84//33
f 22//34 89//34 24//34
f 23//33 88//33 86//33
f 24//34 91//34 26//34
f 27//33 88//33 25//33
f 28//34 91//34 93//34
f 29//33 90//33 27//33
f 30//34 93//34 95//34
f 29//33 94//33 92//33
f 30//34 97//34 32//34
f 31//33 96//33 94//33
f 32//34 99//34 34//34
f 35//33 96//33 33//33
f 36//34 99//34 101//34
f 37//33 98//33 35//33
f 38//34 101//34 103//34
f 37//33 102//33 100//33
f 38//34 105//34 40//34
f 39//33 104//33 102//33
f 40//34 107//34 42//34
f 43//33 104//33 41//33
f 44//34 107//34 109//34
f 45//33 106//33 43//33
f 46//34 109//34 111//34
f 45//33 110//33 108//33
f 46//34 113//34 48//34
f 47//33 112//33 110//33
f 48//34 115//34 50//34
f 51//33 112//33 49//33
f 52//34 115//34 117//34
f 53//33 114//33 51//33
f 54//34 117//34 119//34
f 55//33 116//33 53//33
f 56//34 119//34 121//34
f 55//33 120//33 118//33
f 56//34 123//34 58//34
f 59//33 120//33 57//33
f 60//34 123//34 125//34
f 61//33 122//33 59//33
f 62//34 125//34 127//34
f 61//33 126//33 124//33
f 62//34 128//34 64//34
f 63//33 67//33 126//33
f 64//34 66//34 1//34
f 1//1 4//1 2//1
f 4//2 6//2 5//2
f 6//3 8//3 7//3
f 8//4 10//4 9//4
f 10//5 12//5 11//5
f 12//6 14//6 13//6
f 14//7 16//7 15//7
f 16//8 18//8 17//8
f 18//9 20//9 19//9
f 20//10 22//10 21//10
f 22//11 24//11 23//11
f 24//12 26//12 25//12
f 26//13 28//13 27//13
f 28//14 30//14 29//14
f 30//15 32//15 31//15
f 32//16 34//16 33//16
f 34//17 36//17 35//17
f 36//18 38//18 37//18
f 38//19 40//19 39//19
f 40//20 42//20 41//20
f 42//21 44//21 43//21
f 44//22 46//22 45//22
f 46//23 48//23 47//23
f 48//24 50//24 49//24
f 50//25 52//25 51//25
f 52//26 54//26 53//26
f 54//27 56//27 55//27
f 56//28 58//28 57//28
f 58//29 60//29 59//29
f 60//30 62//30 61//30
f 62//31 64//31 63//31
f 64//32 1//32 3//32
f 65//17 69//17 66//17
f 68//18 71//18 69//18
f 70//19 73//19 71//19
f 72//20 75//20 73//20
f 74//21 77//21 75//21
f 76//22 79//22 77//22
f 78//23 81//23 79//23
f 80//24 83//24 81//24
f 82//25 85//25 83//25
f 84//26 87//26 85//26
f 86//27 89//27 87//27
f 88//28 91//28 89//28
f 90//29 93//29 91//29
f 92//30 95//30 93//30
f 94//31 97//31 95//31
f 96//32 99//32 97//32
f 98//1 101//1 99//1
f 100//2 103//2 101//2
f 102//3 105//3 103//3
f 104//4 107//4 105//4
f 106//5 109//5 107//5
f 108//6 111//6 109//6
f 110//7 113//7 111//7
f 112//8 115//8 113//8
f 114//9 117//9 115//9
f 116//10 119//10 117//10
f 118//11 121//11 119//11
f 120//12 123//12 121//12
f 122//13 125//13 123//13
f 124//14 127//14 125//14
f 126//15 128//15 127//15
f 67//16 66//16 128//16
f 2//33 65//33 67//33
f 4//34 1//34 66//34
f 5//33 68//33 65//33
f 6//34 4//34 69//34
f 5//33 7//33 70//33
f 6//34 71//34 73//34
f 7//33 9//33 72//33
f 8//34 73//34 75//34
f 11//33 74//33 72//33
f 12//34 10//34 75//34
f 13//33 76//33 74//33
f 14//34 12//34 77//34
f 13//33 15//33 78//33
f 14//34 79//34 81//34
f 15//33 17//33 80//33
f 16//34 81//34 83//34
f 19//33 82//33 80//33
f 20//34 18//34 83//34
f 21//33 84//33 82//33
f 22//34 20//34 85//34
f 21//33 23//33 86//33
f 22//34 87//34 89//34
f 23//33 25//33 88//33
f 24//34 89//34 91//34
f 27//33 90//33 88//33
f 28//34 26//34 91//34
f 29//33 92//33 90//33
f 30//34 28//34 93//34
f 29//33 31//33 94//33
f 30//34 95//34 97//34
f 31//33 33//33 96//33
f 32//34 97//34 99//34
f 35//33 98//33 96//33
f 36//34 34//34 99//34
f 37//33 100//33 98//33
f 38//34 36//34 101//34
f 37//33 39//33 102//33
f 38//34 103//34 105//34
f 39//33 41//33 104//33
f 40//34 105//34 107//34
f 43//33 106//33 104//33
f 44//34 42//34 107//34
f 45//33 108//33 106//33
f 46//34 44//34 109//34
f 45//33 47//33 110//33
f 46//34 111//34 113//34
f 47//33 49//33 112//33
f 48//34 113//34 115//34
f 51//33 114//33 112//33
f 52//34 50//34 115//34
f 53//33 116//33 114//33
f 54//34 52//34 117//34
f 55//33 118//33 116//33
f 56//34 54//34 119//34
f 55//33 57//33 120//33
f 56//34 121//34 123//34
f 59//33 122//33 120//33
f 60//34 58//34 123//34
f 61//33 124//33 122//33
f 62//34 60//34 125//34
f 61//33 63//33 126//33
f 62//34 127//34 128//34
f 63//33 3//33 67//33
f 64//34 128//34 66//34
