v -0.062500 -0.062500 -2.437500
v 0.125397 -0.125397 -2.437500
v 0.062500 -0.062500 -2.437500
v 0.062500 0.062500 -2.437500
v -0.062500 0.062500 -0.562500
v 0.062500 0.062500 -0.562500
v -0.062500 0.062500 -2.437500
v -0.062500 -0.062500 -0.562500
v 0.062500 -0.062500 -0.562500
v -0.125397 -0.125397 -2.437500
v 0.125397 -0.125397 -2.692008
v -0.125397 0.125397 -2.437500
v 0.125397 0.125397 -2.437500
v -0.125397 -0.125397 -2.692008
v -0.125397 0.125397 -2.692008
v 0.125397 0.125397 -2.692008
vn 0.0000 0.0000 -1.0000
vn 0.0000 0.0000 1.0000
vn 0.0000 1.0000 0.0000
vn -1.0000 0.0000 0.0000
vn 1.0000 0.0000 0.0000
vn 0.0000 -1.0000 -0.0000
vn -0.7071 -0.7071 0.0000
vn 0.7071 -0.7071 0.0000
vn 0.7071 0.7071 0.0000
vn -0.7071 0.7071 0.0000
s off
f 14//1 15//1 16//1
f 14//1 16//1 11//1
s 1
f 1//2 2//2 3//2
f 4//3 5//3 6//3
f 7//4 8//4 5//4
f 9//2 5//2 8//2
f 3//5 6//5 9//5
f 1//6 9//6 8//6
f 10//7 11//8 2//8
f 4//2 12//2 7//2
f 7//2 10//2 1//2
f 3//2 13//2 4//2
f 2//8 16//9 13//9
f 10//7 15//10 14//7
f 13//9 15//10 12//10
f 1//2 10//2 2//2
f 4//3 7//3 5//3
f 7//4 1//4 8//4
f 9//2 6//2 5//2
f 3//5 4//5 6//5
f 1//6 3//6 9//6
f 4//2 13//2 12//2
f 7//2 12//2 10//2
f 3//2 2//2 13//2
f 10//7 14//7 11//8
f 2//8 11//8 16//9
f 10//7 12//10 15//10
f 13//9 16//9 15//10
