# Blender v2.90.0 OBJ File: ''
# www.blender.org
o Cube.001
v 2.500000 0.075000 -0.075000
v 0.500000 0.075000 0.075000
v 0.500000 0.075000 -0.075000
v 2.500000 -0.075000 0.075000
v 0.500000 -0.075000 0.075000
v 2.500000 -0.140564 -0.140564
v 2.500000 -0.075000 -0.075000
v 0.500000 -0.075000 -0.075000
v 2.500000 0.140564 -0.140564
v 2.958415 0.000000 0.000000
v 2.500000 0.140564 0.140564
v 2.500000 0.075000 0.075000
v 2.500000 -0.140564 0.140564
vn 0.0000 1.0000 0.0000
vn 0.0000 0.0000 1.0000
vn -1.0000 -0.0000 0.0000
vn 0.0000 -1.0000 0.0000
vn 0.0000 0.0000 -1.0000
vn 0.2932 0.0000 -0.9561
vn 0.2932 -0.9561 0.0000
vn 0.2932 0.9561 0.0000
vn 0.2932 0.0000 0.9561
s 1
f 1//1 3//1 2//1
f 2//2 5//2 4//2
f 4//3 7//3 6//3
f 8//4 7//4 4//4
f 3//3 8//3 5//3
f 1//5 7//5 8//5
f 9//6 10//6 6//6
f 1//3 12//3 11//3
f 7//3 1//3 9//3
f 12//3 4//3 13//3
f 6//7 10//7 13//7
f 11//8 10//8 9//8
f 13//9 10//9 11//9
f 1//1 2//1 12//1
f 2//2 4//2 12//2
f 4//3 6//3 13//3
f 8//4 4//4 5//4
f 3//3 5//3 2//3
f 1//5 8//5 3//5
f 1//3 11//3 9//3
f 7//3 9//3 6//3
f 12//3 13//3 11//3
